<?xml version="1.0" encoding="UTF-8"?><svg id="a" xmlns="http://www.w3.org/2000/svg" viewBox="0 0 150 150"><defs><style>.c{fill:#0a77fa;fill-rule:evenodd;}.d{fill:none;}</style></defs><path class="d" d="M0,0H150V150H0V0Z"/><path id="b" class="c" d="M117.47,119.09c-3.66,6.31-10.19,9.79-18.39,9.79h-12.46l24.47-43.65c2.57,4.35,4.72,8.05,6.2,10.7,4.06,7.26,4.13,16.35,.18,23.16ZM85.54,22.2h13.54c9.22,0,14,5.88,16.03,9.39,2.15,3.71,3.23,7.98,3.23,12.24s-1.01,8.28-3.04,11.9c-1.17,2.1-2.71,4.85-4.5,8.05l-25.26-41.58Zm-50.96,106.68v-38.42h36.42l-21.92,38.42h-14.5ZM69.64,57.93H34.58V22.2h13.13l21.93,35.72Zm56.98,32.71c-2.11-3.78-5.48-9.54-9.46-16.24,3.07-5.48,5.69-10.16,7.48-13.36,2.93-5.24,4.39-11.22,4.39-17.2,0-6.17-1.55-12.33-4.65-17.69-5.43-9.37-14.66-14.74-25.29-14.74H34.33c-5.79,0-10.47,4.72-10.47,10.54V63.33c0,.06,.06,5.4,5.9,5.4h58.23L60.19,22.2h12.75l31.8,52.38-30.44,54.3h-13l27.12-49.22H29.7c-3.23,0-5.84,2.64-5.84,5.89v43.49c0,5.87,4.72,10.64,10.55,10.64H99.08c11.99,0,22.07-5.52,27.64-15.13,5.93-10.22,5.88-23.21-.1-33.91Z"/></svg>